HIERARCHY
ROOT Hips
{
	OFFSET 0.000000 35.082581 0.000000
	CHANNELS 6 Xposition Yposition Zposition Xrotation Yrotation Zrotation 
	JOINT Spine
	{
		OFFSET 0.000000 6.876099 0.125700
		CHANNELS 3 Xrotation Yrotation Zrotation
		JOINT Spine1
		{
			OFFSET 0.000000 5.730043 0.104720
			CHANNELS 3 Xrotation Yrotation Zrotation
			JOINT Spine1_split
			{
				OFFSET 0.000000 5.730043 0.104720
				CHANNELS 3 Xrotation Yrotation Zrotation
				JOINT Spine2
				{
					OFFSET 0.000000 5.730043 0.104720
					CHANNELS 3 Xrotation Yrotation Zrotation
					JOINT Neck
					{
						OFFSET 0.000000 10.314075 0.188496
						CHANNELS 3 Xrotation Yrotation Zrotation
						JOINT Head
						{
							OFFSET 0.000000 7.643700 -2.377400
							CHANNELS 3 Xrotation Yrotation Zrotation
							JOINT HeadTop_End
							{
								OFFSET 0.000000 43.788605 -13.619600
								CHANNELS 3 Xrotation Yrotation Zrotation
								End Site
								{
									OFFSET 0.000000 0.000000 0.000000
								}
							}
						}
					}
					JOINT LeftShoulder
					{
						OFFSET 2.196100 4.412489 0.087492
						CHANNELS 3 Xrotation Yrotation Zrotation
						JOINT LeftShoulder_split
						{
							OFFSET 2.196100 4.412489 0.087492
							CHANNELS 3 Xrotation Yrotation Zrotation
							JOINT LeftArm
							{
								OFFSET 8.771219 -2.981674 -0.026999
								CHANNELS 3 Xrotation Yrotation Zrotation
								JOINT LeftForeArm
								{
									OFFSET 8.512804 0.000000 -0.000000
									CHANNELS 3 Xrotation Yrotation Zrotation
									JOINT LeftHand
									{
										OFFSET 18.484802 0.000000 -0.000000
										CHANNELS 3 Xrotation Yrotation Zrotation
										JOINT LeftHandThumb1
										{
											OFFSET 2.499420 -1.158070 2.653252
											CHANNELS 3 Xrotation Yrotation Zrotation
											JOINT LeftHandThumb2
											{
												OFFSET 2.370079 -1.368366 1.368366
												CHANNELS 3 Xrotation Yrotation Zrotation
												JOINT LeftHandThumb3
												{
													OFFSET 2.676727 -1.545410 1.545409
													CHANNELS 3 Xrotation Yrotation Zrotation
													JOINT LeftHandThumb4
													{
														OFFSET 1.692226 -0.977005 0.977007
														CHANNELS 3 Xrotation Yrotation Zrotation
														End Site
														{
															OFFSET 0.000000 0.000000 0.000000
														}
													}
												}
											}
										}
										JOINT LeftHandIndex1
										{
											OFFSET 7.924831 -0.457527 2.345128
											CHANNELS 3 Xrotation Yrotation Zrotation
											JOINT LeftHandIndex2
											{
												OFFSET 3.643303 0.000000 0.000000
												CHANNELS 3 Xrotation Yrotation Zrotation
												JOINT LeftHandIndex3
												{
													OFFSET 3.810799 0.000000 0.000000
													CHANNELS 3 Xrotation Yrotation Zrotation
													JOINT LeftHandIndex4
													{
														OFFSET 2.403702 0.000000 0.000000
														CHANNELS 3 Xrotation Yrotation Zrotation
														End Site
														{
															OFFSET 0.000000 0.000000 0.000000
														}
													}
												}
											}
										}
										JOINT LeftHandMiddle1
										{
											OFFSET 8.563995 0.000000 -0.000000
											CHANNELS 3 Xrotation Yrotation Zrotation
											JOINT LeftHandMiddle2
											{
												OFFSET 3.861618 0.000000 0.000000
												CHANNELS 3 Xrotation Yrotation Zrotation
												JOINT LeftHandMiddle3
												{
													OFFSET 3.701603 0.000000 0.000000
													CHANNELS 3 Xrotation Yrotation Zrotation
													JOINT LeftHandMiddle4
													{
														OFFSET 2.322544 0.000000 0.000000
														CHANNELS 3 Xrotation Yrotation Zrotation
														End Site
														{
															OFFSET 0.000000 0.000000 0.000000
														}
													}
												}
											}
										}
										JOINT LeftHandRing1
										{
											OFFSET 8.426460 -0.424637 -3.286992
											CHANNELS 3 Xrotation Yrotation Zrotation
											JOINT LeftHandRing2
											{
												OFFSET 3.126408 0.000000 0.000000
												CHANNELS 3 Xrotation Yrotation Zrotation
												JOINT LeftHandRing3
												{
													OFFSET 3.085026 0.000000 0.000000
													CHANNELS 3 Xrotation Yrotation Zrotation
													JOINT LeftHandRing4
													{
														OFFSET 1.644005 0.000000 0.000000
														CHANNELS 3 Xrotation Yrotation Zrotation
														End Site
														{
															OFFSET 0.000000 0.000000 0.000000
														}
													}
												}
											}
										}
									}
								}
							}
						}
					}
					JOINT RightShoulder
					{
						OFFSET -2.196100 4.412496 0.070690
						CHANNELS 3 Xrotation Yrotation Zrotation
						JOINT RightShoulder_split
						{
							OFFSET -2.196100 4.412496 0.070690
							CHANNELS 3 Xrotation Yrotation Zrotation
							JOINT RightArm
							{
								OFFSET -8.771282 -2.981682 -0.094208
								CHANNELS 3 Xrotation Yrotation Zrotation
								JOINT RightForeArm
								{
									OFFSET -8.494598 0.000000 0.000000
									CHANNELS 3 Xrotation Yrotation Zrotation
									JOINT RightHand
									{
										OFFSET -18.483803 0.000000 0.000001
										CHANNELS 3 Xrotation Yrotation Zrotation
										JOINT RightHandThumb1
										{
											OFFSET -2.527351 -1.008072 2.575253
											CHANNELS 3 Xrotation Yrotation Zrotation
											JOINT RightHandThumb2
											{
												OFFSET -2.321518 -1.340328 1.340329
												CHANNELS 3 Xrotation Yrotation Zrotation
												JOINT RightHandThumb3
												{
													OFFSET -2.657753 -1.534454 1.534455
													CHANNELS 3 Xrotation Yrotation Zrotation
													JOINT RightHandThumb4
													{
														OFFSET -1.807510 -1.043568 1.043567
														CHANNELS 3 Xrotation Yrotation Zrotation
														End Site
														{
															OFFSET 0.000000 0.000000 0.000000
														}
													}
												}
											}
										}
										JOINT RightHandIndex1
										{
											OFFSET -8.811420 0.015533 2.887987
											CHANNELS 3 Xrotation Yrotation Zrotation
											JOINT RightHandIndex2
											{
												OFFSET -3.537502 0.000000 0.000000
												CHANNELS 3 Xrotation Yrotation Zrotation
												JOINT RightHandIndex3
												{
													OFFSET -3.356201 0.000000 0.000000
													CHANNELS 3 Xrotation Yrotation Zrotation
													JOINT RightHandIndex4
													{
														OFFSET -1.933098 0.000000 0.000000
														CHANNELS 3 Xrotation Yrotation Zrotation
														End Site
														{
															OFFSET 0.000000 0.000000 0.000000
														}
													}
												}
											}
										}
										JOINT RightHandMiddle1
										{
											OFFSET -8.178135 0.000000 0.000000
											CHANNELS 3 Xrotation Yrotation Zrotation
											JOINT RightHandMiddle2
											{
												OFFSET -3.901302 0.000000 0.000000
												CHANNELS 3 Xrotation Yrotation Zrotation
												JOINT RightHandMiddle3
												{
													OFFSET -3.909599 0.000000 0.000000
													CHANNELS 3 Xrotation Yrotation Zrotation
													JOINT RightHandMiddle4
													{
														OFFSET -2.376003 0.000000 0.000000
														CHANNELS 3 Xrotation Yrotation Zrotation
														End Site
														{
															OFFSET 0.000000 0.000000 0.000000
														}
													}
												}
											}
										}
										JOINT RightHandRing1
										{
											OFFSET -7.559013 0.014137 -2.865403
											CHANNELS 3 Xrotation Yrotation Zrotation
											JOINT RightHandRing2
											{
												OFFSET -3.449306 0.000000 0.000000
												CHANNELS 3 Xrotation Yrotation Zrotation
												JOINT RightHandRing3
												{
													OFFSET -3.362106 0.000000 0.000000
													CHANNELS 3 Xrotation Yrotation Zrotation
													JOINT RightHandRing4
													{
														OFFSET -2.076401 0.000000 0.000000
														CHANNELS 3 Xrotation Yrotation Zrotation
														End Site
														{
															OFFSET 0.000000 0.000000 0.000000
														}
													}
												}
											}
										}
									}
								}
							}
						}
					}
				}
			}
		}
	}
	JOINT LeftUpLeg
	{
		OFFSET 10.205400 -3.823500 0.155100
		CHANNELS 3 Xrotation Yrotation Zrotation
		JOINT LeftLeg
		{
			OFFSET 0.708757 -12.982077 0.567790
			CHANNELS 3 Xrotation Yrotation Zrotation
			JOINT LeftFoot
			{
				OFFSET -0.708756 -10.717838 -2.184338
				CHANNELS 3 Xrotation Yrotation Zrotation
				JOINT LeftToeBase
				{
					OFFSET 0.108149 -7.191104 7.560241
					CHANNELS 3 Xrotation Yrotation Zrotation
					JOINT LeftToe_End
					{
						OFFSET 0.070230 0.081724 4.490308
						CHANNELS 3 Xrotation Yrotation Zrotation
						End Site
						{
							OFFSET 0.000000 0.000000 0.000000
						}
					}
				}
			}
		}
	}
	JOINT RightUpLeg
	{
		OFFSET -10.205400 -3.823500 0.005500
		CHANNELS 3 Xrotation Yrotation Zrotation
		JOINT RightLeg
		{
			OFFSET -0.708756 -12.982134 0.610632
			CHANNELS 3 Xrotation Yrotation Zrotation
			JOINT RightFoot
			{
				OFFSET 0.708754 -10.717769 -1.945823
				CHANNELS 3 Xrotation Yrotation Zrotation
				JOINT RightToeBase
				{
					OFFSET -0.108140 -7.191069 7.372968
					CHANNELS 3 Xrotation Yrotation Zrotation
					JOINT RightToe_End
					{
						OFFSET -0.070227 0.081735 4.479403
						CHANNELS 3 Xrotation Yrotation Zrotation
						End Site
						{
							OFFSET 0.000000 0.000000 0.000000
						}
					}
				}
			}
		}
	}
}
MOTION
Frames: 4
Frame Time: 0.016667
-0.301457 26.564644 0.292671 11.655764 -49.360425 11.305241 10.974581 2.699010 -2.069991 6.100707 5.566552 -4.284692 0.000000 0.000000 0.000000 -5.786917 6.328140 -3.046183 2.319050 9.363315 -0.265468 -4.147095 23.161906 -3.523281 -0.000001 0.000000 -0.000000 -1.875348 -16.181679 -2.870480 0.000000 0.000000 0.000000 -10.644697 2.164668 -45.510643 -22.862361 -25.786228 -15.871615 2.491021 -2.511865 6.860436 18.457954 -9.513786 13.216603 -1.150207 11.255328 -8.400824 5.706532 8.483107 -0.820712 -0.000004 0.000001 -0.000006 -1.232786 -5.771962 -0.192345 0.133930 -0.197648 -4.602133 0.055759 -0.448194 -7.568209 0.000001 0.000001 -0.000001 1.884732 4.663383 -4.597392 0.476674 -1.009855 -12.986417 0.628525 -1.346596 -16.554012 -0.000001 -0.000000 -0.000001 3.024619 7.938918 -14.103468 -0.708025 -0.566208 -18.895746 -0.726372 -0.705019 -22.058407 0.000003 0.000002 0.000001 -5.074622 24.343814 1.482710 0.000000 0.000000 0.000000 6.642381 -34.733810 57.610419 -21.032003 44.833806 19.961662 -0.087207 35.608491 7.474248 55.149560 18.649551 -29.698305 -0.442556 -14.180554 7.313154 21.666992 -29.244500 9.142363 0.000002 0.000002 0.000001 5.673398 7.585009 36.844165 1.050453 3.824527 68.900237 0.499589 3.026041 62.196440 -0.000002 -0.000001 0.000001 -0.125714 1.886097 45.000790 -1.169015 3.204654 68.417670 -0.936422 1.813612 41.107552 0.000002 0.000000 0.000001 -5.312017 1.216647 58.508807 -0.745220 1.667564 48.011292 -0.816483 1.840605 53.666548 0.000001 -0.000002 0.000001 -69.352737 16.208186 51.972255 53.929623 -25.144896 2.808931 2.213519 2.700426 -19.144349 -0.941292 -6.111072 0.982438 -0.000000 -0.000003 -0.000000 -27.355095 4.523017 -38.849160 61.087675 11.597692 -5.601565 -37.636207 -11.606902 32.641973 0.528304 2.970099 1.471453 -0.000000 -0.000002 -0.000000 
-0.134368 26.611755 0.514757 11.442503 -49.966082 11.085267 10.937404 2.690578 -2.011061 6.124970 5.554791 -4.185736 0.000000 0.000000 0.000000 -5.749234 6.252890 -2.945711 2.454505 9.259351 0.283437 -4.037794 23.425824 -4.188946 -0.000000 -0.000000 0.000000 -1.890576 -15.766085 -3.028456 0.000000 0.000000 0.000000 -10.843730 2.172850 -45.626978 -22.239274 -25.278197 -15.651638 2.395511 -2.217324 6.686381 18.445850 -9.517035 13.239960 -1.175405 11.215352 -8.387399 5.706517 8.483071 -0.820712 -0.000000 0.000001 -0.000001 -1.232788 -5.771120 -0.170632 0.134050 -0.196781 -4.580402 0.055819 -0.447309 -7.546483 0.000001 -0.000002 -0.000001 1.839196 4.652773 -4.567429 0.476917 -1.008865 -12.960882 0.628810 -1.345695 -16.528491 0.000003 -0.000000 -0.000000 3.025042 7.940582 -14.060287 -0.707459 -0.564584 -18.852219 -0.725724 -0.703383 -22.014970 -0.000002 -0.000002 0.000001 -5.114969 24.192856 1.600690 0.000000 0.000000 0.000000 7.019148 -34.769406 57.282867 -21.780864 43.486985 20.030037 -0.160454 36.453140 8.087206 55.149560 18.649548 -29.698308 -0.442554 -14.180550 7.313154 21.666994 -29.244507 9.142360 0.000001 0.000002 -0.000000 5.673396 7.585010 36.844168 1.050451 3.824527 68.900237 0.499585 3.026045 62.196440 -0.000000 -0.000001 0.000004 -0.125714 1.886099 45.000787 -1.169015 3.204652 68.417670 -0.936428 1.813611 41.107552 -0.000002 -0.000001 0.000001 -5.312019 1.216651 58.508807 -0.745224 1.667555 48.011292 -0.816483 1.840605 53.666552 0.000003 0.000000 0.000002 -68.953943 16.277224 52.251736 55.267196 -24.906104 2.566623 0.820402 2.885553 -18.387889 -0.943020 -6.111129 0.984247 0.000000 -0.000001 -0.000000 -26.953062 4.647769 -38.877847 59.693196 11.514467 -5.951965 -36.141348 -12.014092 33.515188 0.717095 3.574786 1.379429 0.000000 -0.000001 -0.000000 
0.073374 26.689995 0.739084 11.258663 -50.742869 10.913533 10.838826 2.692657 -1.945943 6.211057 5.531375 -4.085913 0.000000 0.000000 0.000000 -5.634576 6.080637 -2.847561 2.506707 8.998888 0.963303 -3.946309 23.543607 -4.816440 -0.000000 0.000000 -0.000000 -1.898948 -15.838099 -3.026438 0.000000 0.000000 0.000000 -10.916586 3.036748 -45.852709 -21.654531 -24.915523 -15.679254 2.318328 -2.084234 6.697813 18.431639 -9.520781 13.267326 -1.205860 11.169469 -8.368938 5.706532 8.483095 -0.820709 -0.000003 0.000002 0.000004 -1.232799 -5.770119 -0.145188 0.134118 -0.195812 -4.554969 0.055969 -0.446330 -7.521038 -0.000003 -0.000002 0.000002 1.785760 4.640264 -4.532359 0.477193 -1.007136 -12.931021 0.629117 -1.344538 -16.498597 0.000001 0.000004 -0.000001 3.025526 7.942530 -14.009673 -0.706786 -0.562740 -18.801279 -0.724975 -0.701490 -21.964013 0.000002 -0.000001 -0.000000 -5.162231 24.117360 1.733597 0.000000 0.000000 0.000000 7.217160 -34.742905 57.034815 -22.411819 42.270094 20.016515 -0.144757 37.048896 8.544439 55.149560 18.649550 -29.698308 -0.442557 -14.180552 7.313155 21.666987 -29.244507 9.142361 0.000000 -0.000000 0.000001 5.673397 7.585007 36.844158 1.050450 3.824532 68.900237 0.499588 3.026042 62.196447 0.000003 -0.000000 0.000000 -0.125718 1.886100 45.000783 -1.169015 3.204654 68.417670 -0.936425 1.813614 41.107555 -0.000002 -0.000001 0.000000 -5.312020 1.216648 58.508807 -0.745224 1.667559 48.011288 -0.816479 1.840606 53.666552 -0.000000 -0.000000 -0.000001 -68.380261 16.519210 52.540957 56.368718 -24.654577 2.259906 -0.557070 3.136489 -17.635653 -0.949359 -6.107049 0.990899 0.000000 -0.000002 0.000000 -26.711924 4.841821 -38.924446 58.093798 11.445220 -6.261642 -34.447147 -12.209708 34.407235 0.888192 4.174556 1.281203 -0.000000 -0.000003 0.000000 
0.308813 26.786400 0.987694 11.159254 -51.745038 10.806520 10.682833 2.686505 -1.864502 6.304678 5.446425 -3.965659 0.000000 0.000000 0.000000 -5.493484 5.769531 -2.734775 2.557821 8.625427 1.729380 -3.941157 23.486686 -5.405073 -0.000000 -0.000000 -0.000000 -1.912196 -15.416606 -3.171524 0.000000 0.000000 0.000000 -11.148255 3.692023 -46.007526 -20.985201 -24.405068 -15.663046 2.270425 -1.926655 6.652083 18.404086 -9.528109 13.320418 -1.265178 11.080874 -8.332354 5.706521 8.483136 -0.820713 -0.000002 -0.000000 -0.000002 -1.232767 -5.768240 -0.095809 0.134282 -0.193908 -4.505599 0.056237 -0.444367 -7.471660 0.000000 0.000002 0.000001 1.682310 4.615615 -4.464381 0.477650 -1.002992 -12.873070 0.629784 -1.342405 -16.440556 -0.000000 0.000000 -0.000000 3.030779 7.946183 -13.912200 -0.705586 -0.559060 -18.702509 -0.723448 -0.697843 -21.865162 -0.000001 0.000003 0.000001 -5.215415 24.184383 1.892609 0.000000 0.000000 0.000000 6.918595 -34.742188 56.575297 -22.804893 40.833528 19.736822 -0.060799 37.536592 9.176393 55.149563 18.649551 -29.698308 -0.442553 -14.180554 7.313154 21.666991 -29.244507 9.142368 -0.000002 -0.000000 0.000001 5.673397 7.585016 36.844165 1.050450 3.824529 68.900237 0.499592 3.026042 62.196447 -0.000001 0.000001 -0.000001 -0.125713 1.886103 45.000790 -1.169015 3.204648 68.417670 -0.936425 1.813611 41.107555 -0.000001 0.000000 -0.000001 -5.312014 1.216651 58.508807 -0.745223 1.667562 48.011288 -0.816482 1.840604 53.666555 0.000001 0.000001 -0.000001 -67.638216 16.852899 52.860839 57.521155 -24.346734 1.926277 -2.154417 3.512952 -16.870972 -0.960853 -6.100596 1.003061 0.000000 -0.000001 -0.000000 -26.636440 5.089866 -39.073344 56.153727 11.463153 -6.466279 -32.514299 -12.172134 35.345396 0.925863 4.755457 1.166189 0.000000 -0.000002 0.000000 
